<?xml version="1.0" standalone="no"?>
<!DOCTYPE svg PUBLIC "-//W3C//DTD SVG 20010904//EN"
 "http://www.w3.org/TR/2001/REC-SVG-20010904/DTD/svg10.dtd">
<svg version="1.0" xmlns="http://www.w3.org/2000/svg"
 width="545.000000pt" height="545.000000pt" viewBox="0 0 545.000000 545.000000"
 preserveAspectRatio="xMidYMid meet">
<metadata>
Created by potrace 1.11, written by Peter Selinger 2001-2013
</metadata>
<g transform="translate(0.000000,545.000000) scale(0.100000,-0.100000)"
fill="#000000" stroke="none">
<path d="M972 3908 l-2 -48 -475 0 -475 0 0 -50 0 -50 210 0 210 0 0 -665 0
-665 60 0 60 0 0 665 0 665 205 0 205 0 0 -180 0 -180 -50 0 -50 0 0 -485 0
-485 50 0 50 0 0 -70 0 -70 -265 0 -265 0 0 -35 0 -35 265 0 265 0 0 -65 c0
-64 0 -65 -28 -65 -40 0 -94 -33 -117 -71 -28 -48 -29 -266 -2 -317 22 -41 72
-72 114 -72 l32 0 4 -62 3 -63 2 61 c2 61 2 62 35 68 19 4 48 21 68 42 l34 35
3 137 c2 123 1 140 -18 170 -21 35 -74 72 -102 72 -15 0 -18 10 -18 65 l0 65
2180 0 2180 0 0 35 0 35 -2180 0 -2180 0 0 383 c0 416 4 459 56 536 73 112
224 140 337 64 l50 -34 39 38 c21 20 38 40 38 43 0 18 -96 72 -151 86 -110 28
-245 -1 -327 -72 l-42 -35 -3 328 c-1 180 -3 307 -5 281z m-2 -2048 l0 -190
-25 0 c-14 0 -39 13 -57 29 l-33 29 -3 112 c-3 73 0 122 8 141 16 37 55 69 86
69 l24 0 0 -190z m44 178 c42 -19 59 -56 64 -140 7 -114 -4 -166 -40 -200 -56
-53 -58 -48 -58 162 0 105 2 190 5 190 2 0 15 -5 29 -12z"/>
<path d="M1610 3795 l0 -65 70 0 70 0 0 65 0 65 -70 0 -70 0 0 -65z"/>
<path d="M1900 3145 l0 -715 328 0 c348 0 413 7 505 50 73 34 132 93 169 167
29 60 33 78 36 170 3 78 0 116 -13 156 -22 66 -72 135 -123 167 l-39 25 49 44
c27 24 61 67 76 95 25 47 27 60 27 166 0 103 -3 121 -26 170 -49 105 -119 164
-240 201 -55 17 -96 19 -405 19 l-344 0 0 -715z m656 436 c52 -29 78 -73 78
-132 0 -62 -29 -109 -84 -136 -40 -21 -58 -23 -202 -23 l-158 0 0 161 0 161
163 -4 c148 -3 166 -5 203 -27z m-16 -561 c47 -13 96 -65 110 -117 22 -84 -31
-181 -110 -203 -19 -5 -106 -10 -192 -10 l-158 0 0 170 0 170 158 0 c86 0 173
-5 192 -10z"/>
<path d="M4183 3848 c3 -7 93 -161 202 -343 108 -181 197 -333 198 -336 1 -3
-94 -163 -210 -356 -117 -193 -216 -358 -219 -367 -5 -14 12 -16 157 -16 l164
0 135 244 135 244 62 -111 c34 -62 95 -172 135 -244 l73 -133 163 0 c128 0
163 3 160 13 -2 7 -100 172 -218 366 -118 195 -214 358 -213 362 2 4 93 158
203 343 110 184 200 338 200 341 0 3 -73 5 -162 5 l-163 0 -120 -224 -120
-223 -120 223 -120 224 -164 0 c-126 0 -162 -3 -158 -12z"/>
<path d="M3343 3687 c-155 -89 -282 -166 -282 -172 0 -5 127 -83 283 -173
l284 -163 282 164 c155 89 283 167 284 171 1 6 -558 337 -567 336 -1 0 -129
-73 -284 -163z"/>
<path d="M3903 3308 l-283 -163 0 -332 c0 -183 3 -333 8 -333 4 0 133 74 287
163 l280 162 3 333 c1 182 -1 332 -5 332 -5 0 -135 -73 -290 -162z"/>
<path d="M1620 2915 l0 -485 60 0 60 0 0 485 0 485 -60 0 -60 0 0 -485z"/>
<path d="M3113 3263 c-4 -15 -8 -71 -8 -123 1 -83 4 -103 29 -158 49 -106 138
-170 247 -175 32 -2 34 0 37 35 4 52 -25 102 -102 177 -72 68 -66 72 20 15
130 -87 140 -206 30 -353 -14 -19 -24 -36 -22 -39 3 -2 25 10 51 28 111 76
163 222 116 325 -25 55 -71 93 -197 162 -59 32 -126 75 -150 96 l-43 38 -8
-28z"/>
<path d="M488 2074 c-36 -19 -58 -63 -58 -115 0 -33 6 -47 33 -74 27 -27 45
-35 106 -45 117 -20 155 -78 92 -141 -25 -25 -37 -29 -84 -29 -42 0 -63 6 -92
26 -34 23 -40 24 -53 10 -52 -52 154 -104 238 -61 55 29 77 113 45 174 -15 30
-76 61 -120 61 -45 0 -102 30 -115 59 -14 34 -1 72 32 95 33 24 109 21 142 -5
25 -20 29 -20 43 -6 19 19 12 30 -31 51 -43 20 -141 20 -178 0z"/>
<path d="M1220 1860 l0 -230 140 0 c133 0 140 1 140 20 0 19 -7 20 -120 20
l-120 0 0 210 c0 203 -1 210 -20 210 -19 0 -20 -7 -20 -230z"/>
<path d="M1542 1913 c3 -198 11 -227 71 -263 44 -28 138 -27 182 0 57 35 65
66 65 264 0 169 -1 176 -20 176 -19 0 -20 -7 -20 -160 0 -173 -9 -214 -51
-244 -13 -9 -43 -16 -67 -16 -37 0 -50 6 -78 34 l-34 34 0 176 0 176 -26 0
-26 0 4 -177z"/>
<path d="M1930 2070 c0 -18 7 -20 70 -20 l70 0 0 -210 c0 -203 1 -210 20 -210
19 0 20 7 20 210 l0 210 70 0 c63 0 70 2 70 20 0 19 -7 20 -160 20 -153 0
-160 -1 -160 -20z"/>
<path d="M2320 1860 c0 -223 1 -230 20 -230 19 0 20 7 20 230 0 223 -1 230
-20 230 -19 0 -20 -7 -20 -230z"/>
<path d="M2533 2074 c-18 -9 -43 -33 -55 -53 -21 -32 -23 -48 -23 -161 1 -143
11 -174 70 -210 30 -19 47 -22 101 -18 59 4 68 7 102 41 l37 37 0 149 c0 146
-1 150 -25 176 -14 15 -37 33 -52 41 -36 19 -115 17 -155 -2z m144 -44 c39
-24 53 -67 53 -170 0 -138 -32 -190 -116 -190 -34 0 -51 6 -76 29 l-33 29 -3
112 c-4 122 5 158 46 190 32 26 88 26 129 0z"/>
<path d="M2870 1860 c0 -223 1 -230 20 -230 19 0 20 7 20 187 l0 188 125 -188
c170 -254 165 -255 165 43 0 223 -1 230 -20 230 -19 0 -20 -7 -20 -187 l0
-188 -125 188 c-170 254 -165 255 -165 -43z"/>
<path d="M3348 2072 c-39 -24 -62 -75 -55 -126 8 -55 49 -92 114 -101 73 -10
111 -24 128 -48 23 -33 18 -65 -14 -98 -25 -25 -37 -29 -84 -29 -42 0 -63 6
-92 26 -33 22 -40 24 -53 11 -33 -34 47 -77 143 -77 111 0 155 37 155 128 0
47 -4 58 -30 82 -19 18 -46 31 -73 35 -81 12 -96 17 -122 36 -36 29 -35 89 1
118 35 28 105 28 149 1 28 -17 34 -18 45 -5 15 18 8 29 -34 49 -45 21 -143 21
-178 -2z"/>
<path d="M3850 1860 l0 -230 103 0 c177 0 210 34 215 220 3 104 1 119 -20 160
-34 65 -69 80 -195 80 l-103 0 0 -230z m218 170 c37 -23 47 -44 57 -121 10
-80 -9 -177 -40 -208 -22 -23 -36 -26 -105 -29 l-80 -4 0 191 0 191 68 0 c49
0 76 -5 100 -20z"/>
<path d="M4450 2071 c-63 -33 -75 -68 -75 -216 0 -146 8 -169 68 -205 46 -29
133 -27 178 3 56 37 69 75 69 207 0 132 -13 170 -69 207 -43 29 -121 31 -171
4z m155 -54 c27 -27 34 -44 40 -91 9 -73 -1 -181 -21 -210 -18 -29 -55 -46
-100 -46 -28 0 -44 8 -71 35 l-35 35 4 126 3 126 33 29 c47 42 102 41 147 -4z"/>
<path d="M4990 2082 c-29 -13 -57 -37 -75 -66 -26 -39 -27 -264 -2 -313 28
-52 77 -76 150 -71 71 4 108 25 132 76 13 27 16 60 13 167 -3 126 -4 135 -28
160 -14 15 -37 33 -52 41 -28 14 -111 18 -138 6z m127 -52 c40 -24 53 -67 53
-178 0 -130 -33 -182 -115 -182 -47 0 -79 19 -100 60 -18 35 -21 201 -4 249
22 64 104 89 166 51z"/>
<path d="M4240 1660 c0 -27 3 -30 30 -30 27 0 30 3 30 30 0 27 -3 30 -30 30
-27 0 -30 -3 -30 -30z"/>
<path d="M4760 1660 c0 -27 3 -30 30 -30 27 0 30 3 30 30 0 27 -3 30 -30 30
-27 0 -30 -3 -30 -30z"/>
<path d="M5290 1660 c0 -25 4 -30 25 -30 21 0 25 5 25 30 0 25 -4 30 -25 30
-21 0 -25 -5 -25 -30z"/>
</g>
</svg>
